<svg width="25" height="24" viewBox="0 0 25 24" fill="none" xmlns="http://www.w3.org/2000/svg">
<rect x="0.5" width="24" height="24" rx="12" fill="white"/>
<path opacity="0.4" d="M9.00613 18.6667H15.9928C17.8328 18.6667 18.5661 17.54 18.6528 16.1667L18.9995 10.66C19.0928 9.22 17.9461 8 16.4995 8C16.0928 8 15.7195 7.76667 15.5328 7.40667L15.0528 6.44C14.7461 5.83333 13.9461 5.33333 13.2661 5.33333H11.7395C11.0528 5.33333 10.2528 5.83333 9.94613 6.44L9.46613 7.40667C9.27946 7.76667 8.90613 8 8.49946 8C7.05279 8 5.90613 9.22 5.99946 10.66L6.34613 16.1667C6.42613 17.54 7.16613 18.6667 9.00613 18.6667Z" fill="#40444E"/>
<path d="M13.5 9.83333H11.5C11.2267 9.83333 11 9.60667 11 9.33333C11 9.06 11.2267 8.83333 11.5 8.83333H13.5C13.7733 8.83333 14 9.06 14 9.33333C14 9.60667 13.7733 9.83333 13.5 9.83333Z" fill="#40444E"/>
<path d="M12.5004 16.0867C13.7449 16.0867 14.7537 15.0778 14.7537 13.8333C14.7537 12.5888 13.7449 11.58 12.5004 11.58C11.2559 11.58 10.2471 12.5888 10.2471 13.8333C10.2471 15.0778 11.2559 16.0867 12.5004 16.0867Z" fill="#40444E"/>
</svg>
