<svg width="48" height="48" viewBox="0 0 48 48" fill="none" xmlns="http://www.w3.org/2000/svg">
<path opacity="0.4" d="M32.38 4H15.62C8.34 4 4 8.34 4 15.62V32.36C4 39.66 8.34 44 15.62 44H32.36C39.64 44 43.98 39.66 43.98 32.38V15.62C44 8.34 39.66 4 32.38 4Z" fill="#292D32"/>
<path d="M26.1207 24.0002L30.7207 19.4002C31.3007 18.8202 31.3007 17.8602 30.7207 17.2802C30.1407 16.7002 29.1807 16.7002 28.6007 17.2802L24.0007 21.8802L19.4007 17.2802C18.8207 16.7002 17.8607 16.7002 17.2807 17.2802C16.7007 17.8602 16.7007 18.8202 17.2807 19.4002L21.8807 24.0002L17.2807 28.6002C16.7007 29.1802 16.7007 30.1402 17.2807 30.7202C17.5807 31.0202 17.9607 31.1602 18.3407 31.1602C18.7207 31.1602 19.1007 31.0202 19.4007 30.7202L24.0007 26.1202L28.6007 30.7202C28.9007 31.0202 29.2807 31.1602 29.6607 31.1602C30.0407 31.1602 30.4207 31.0202 30.7207 30.7202C31.3007 30.1402 31.3007 29.1802 30.7207 28.6002L26.1207 24.0002Z" fill="#292D32"/>
</svg>
