<svg width="20" height="20" viewBox="0 0 20 20" fill="none" xmlns="http://www.w3.org/2000/svg">
<path opacity="0.4" d="M14.195 0.000106812H5.815C2.175 0.000106812 0.00500488 2.17011 0.00500488 5.81011V14.1801C0.00500488 17.8301 2.175 20.0001 5.815 20.0001H14.185C17.825 20.0001 19.995 17.8301 19.995 14.1901V5.81011C20.005 2.17011 17.835 0.000106812 14.195 0.000106812Z" fill="white"/>
<path d="M19.835 1.55011C18.785 4.16011 16.405 7.57011 14.125 9.80011C13.795 7.74011 12.155 6.13011 10.075 5.84011C12.315 3.56011 15.745 1.14011 18.365 0.0801136C18.825 -0.0998864 19.295 0.0401136 19.575 0.330114C19.885 0.630114 20.025 1.09011 19.835 1.55011Z" fill="white"/>
<path opacity="0.4" d="M14.1251 9.79011C13.7251 10.1801 13.3251 10.5401 12.9451 10.8401L11.3751 12.1001C11.1751 12.2401 10.9751 12.3601 10.7551 12.4601C10.7551 12.3101 10.7351 12.1601 10.7251 12.0001C10.6351 11.3401 10.3351 10.7101 9.79506 10.1701C9.24506 9.63011 8.58506 9.32011 7.91506 9.23011C7.75506 9.21011 7.58506 9.21011 7.43506 9.21011C7.52506 8.96011 7.65506 8.73011 7.82506 8.54011L9.07506 6.97011C9.37506 6.59011 9.71506 6.21011 10.0851 5.83011C12.1551 6.12011 13.8051 7.74011 14.1251 9.79011Z" fill="white"/>
<path d="M10.755 12.4701C10.755 13.3501 10.415 14.1901 9.78496 14.8201C9.29496 15.3101 8.64496 15.6501 7.84496 15.7501L5.88496 15.9701C4.81496 16.0901 3.89496 15.1701 4.01496 14.0901L4.23496 12.1301C4.42496 10.3801 5.88496 9.26012 7.43496 9.23012C7.58496 9.22012 7.75496 9.23012 7.91496 9.25012C8.59496 9.34012 9.24496 9.65012 9.79496 10.1901C10.325 10.7201 10.635 11.3601 10.725 12.0201C10.735 12.1701 10.755 12.3201 10.755 12.4701Z" fill="white"/>
</svg>
