<svg width="32" height="32" viewBox="0 0 32 32" fill="none" xmlns="http://www.w3.org/2000/svg">
<rect width="32" height="32" rx="16" fill="#40444E"/>
<path opacity="0.4" d="M16 26C21.5228 26 26 21.5228 26 16C26 10.4772 21.5228 6 16 6C10.4772 6 6 10.4772 6 16C6 21.5228 10.4772 26 16 26Z" fill="white"/>
<path d="M18.2103 16L16.7335 15.4504V11.9348H17.0856C17.8778 11.9348 18.5232 12.6711 18.5232 13.5733C18.5232 13.9985 18.8557 14.3511 19.2567 14.3511C19.6577 14.3511 19.9902 13.9985 19.9902 13.5733C19.9902 11.8104 18.6895 10.3793 17.0856 10.3793H16.7335V9.77778C16.7335 9.35259 16.401 9 16 9C15.599 9 15.2665 9.35259 15.2665 9.77778V10.3793H14.6308C13.1834 10.3793 12 11.6756 12 13.2622C12 15.1185 13.0171 15.7096 13.7897 16L15.2665 16.5496V20.0548H14.9144C14.1222 20.0548 13.4768 19.3185 13.4768 18.4163C13.4768 17.9911 13.1443 17.6385 12.7433 17.6385C12.3423 17.6385 12.0098 17.9911 12.0098 18.4163C12.0098 20.1793 13.3105 21.6104 14.9144 21.6104H15.2665V22.2222C15.2665 22.6474 15.599 23 16 23C16.401 23 16.7335 22.6474 16.7335 22.2222V21.6207H17.3692C18.8166 21.6207 20 20.3244 20 18.7378C19.9902 16.8711 18.9731 16.28 18.2103 16ZM14.2787 14.5378C13.78 14.3511 13.4768 14.1748 13.4768 13.2726C13.4768 12.5363 13.9951 11.9452 14.6406 11.9452H15.2763V14.9111L14.2787 14.5378ZM17.3692 20.0652H16.7335V17.0993L17.7213 17.4622C18.22 17.6489 18.5232 17.8252 18.5232 18.7274C18.5232 19.4637 18.0049 20.0652 17.3692 20.0652Z" fill="white"/>
</svg>
