<svg width="32" height="32" viewBox="0 0 32 32" fill="none" xmlns="http://www.w3.org/2000/svg">
<rect width="32" height="32" rx="16" fill="#F7F7F7"/>
<path d="M24.175 9.28333C23.0834 12.0083 20.5917 15.5667 18.2167 17.8917C17.875 15.7417 16.1584 14.0583 13.9917 13.7583C16.325 11.375 19.9084 8.85 22.6417 7.75C23.125 7.56667 23.6084 7.70833 23.9084 8.00833C24.225 8.325 24.375 8.8 24.175 9.28333Z" fill="#333333"/>
<path opacity="0.4" d="M18.2168 17.8917C17.8001 18.3 17.3834 18.675 16.9834 18.9917L15.3418 20.3083C15.1334 20.4583 14.9251 20.5833 14.6918 20.6833C14.6918 20.525 14.6751 20.3667 14.6584 20.2C14.5668 19.5083 14.2501 18.85 13.6918 18.2917C13.1168 17.725 12.4334 17.4 11.7251 17.3083C11.5584 17.2917 11.3834 17.2833 11.2251 17.2917C11.3168 17.0333 11.4584 16.7917 11.6334 16.5917L12.9334 14.95C13.2418 14.5583 13.6001 14.1583 13.9918 13.7583C16.1584 14.0583 17.8751 15.7417 18.2168 17.8917Z" fill="#333333"/>
<path d="M14.6918 20.6833C14.6918 21.6 14.3418 22.475 13.6751 23.1333C13.1668 23.65 12.4835 24 11.6501 24.1L9.60846 24.325C8.4918 24.45 7.53346 23.4917 7.65846 22.3667L7.88346 20.3167C8.08346 18.4917 9.60846 17.325 11.2251 17.2917C11.3835 17.2833 11.5585 17.2917 11.7251 17.3083C12.4335 17.4 13.1168 17.725 13.6918 18.2917C14.2501 18.85 14.5668 19.5083 14.6585 20.2C14.6751 20.3667 14.6918 20.525 14.6918 20.6833Z" fill="#333333"/>
</svg>
