<svg width="24" height="24" viewBox="0 0 24 24" fill="none" xmlns="http://www.w3.org/2000/svg">
<path opacity="0.4" d="M16.19 2H7.81C4.17 2 2 4.17 2 7.81V16.18C2 19.83 4.17 22 7.81 22H16.18C19.82 22 21.99 19.83 21.99 16.19V7.81C22 4.17 19.83 2 16.19 2Z" fill="#7B88AB"/>
<path d="M17.3333 9H6.66667C6.30222 9 6 8.77333 6 8.5C6 8.22667 6.30222 8 6.66667 8H17.3333C17.6978 8 18 8.22667 18 8.5C18 8.77333 17.6978 9 17.3333 9Z" fill="#7B88AB"/>
<path d="M15.3684 12.5H8.63158C8.28632 12.5 8 12.2733 8 12C8 11.7267 8.28632 11.5 8.63158 11.5H15.3684C15.7137 11.5 16 11.7267 16 12C16 12.2733 15.7137 12.5 15.3684 12.5Z" fill="#7B88AB"/>
<path d="M13.2806 16H10.7194C10.3261 16 10 15.7733 10 15.5C10 15.2267 10.3261 15 10.7194 15H13.2806C13.6739 15 14 15.2267 14 15.5C14 15.7733 13.6835 16 13.2806 16Z" fill="#7B88AB"/>
</svg>
