<svg width="110" height="40" viewBox="0 0 110 40" fill="none" xmlns="http://www.w3.org/2000/svg">
<path d="M19.1731 26.4738C19.1731 27.0302 19.0646 27.5526 18.8475 28.0411C18.6439 28.5295 18.359 28.957 17.9926 29.3233C17.6398 29.6761 17.2192 29.9611 16.7307 30.1782C16.2422 30.3817 15.7198 30.4835 15.1634 30.4835H3.98931V39.2355H0V8.80688H3.98931V12.4705C4.03002 11.9549 4.16571 11.48 4.39638 11.0458C4.62706 10.598 4.91879 10.2113 5.27159 9.88563C5.62438 9.5464 6.03146 9.2818 6.4928 9.09184C6.96772 8.90187 7.46978 8.80688 7.99897 8.80688H15.1634C15.7198 8.80688 16.2422 8.91544 16.7307 9.13254C17.2192 9.33608 17.6398 9.62103 17.9926 9.98739C18.359 10.3402 18.6439 10.7608 18.8475 11.2493C19.0646 11.7378 19.1731 12.2602 19.1731 12.8165V26.4738ZM15.1634 26.4738V12.8165H3.98931V26.4738H15.1634Z" fill="#1F0047"/>
<path d="M25.8491 21.0191C25.8491 20.4627 25.9509 19.9471 26.1544 19.4722C26.3715 18.9837 26.6565 18.5563 27.0093 18.1899C27.3756 17.8235 27.803 17.5386 28.2915 17.3351C28.78 17.1179 29.2956 17.0094 29.8384 17.0094H40.178V12.8165H27.0907V8.80688H40.178C40.7344 8.80688 41.2568 8.91544 41.7453 9.13254C42.2338 9.33608 42.6544 9.62103 43.0072 9.98739C43.3736 10.3402 43.6585 10.7608 43.862 11.2493C44.0792 11.7378 44.1877 12.2602 44.1877 12.8165V30.4835H40.178V26.8198C40.1373 27.3219 40.0016 27.7968 39.771 28.2446C39.5403 28.6924 39.2418 29.0859 38.8754 29.4251C38.5226 29.7508 38.1155 30.0086 37.6542 30.1985C37.1928 30.3885 36.7044 30.4835 36.1887 30.4835H29.8384C29.2956 30.4835 28.78 30.3817 28.2915 30.1782C27.803 29.9611 27.3756 29.6761 27.0093 29.3233C26.6565 28.957 26.3715 28.5295 26.1544 28.0411C25.9509 27.5526 25.8491 27.0302 25.8491 26.4738V21.0191ZM29.8384 26.4738H40.178V21.0191H29.8384V26.4738Z" fill="#1F0047"/>
<path d="M52.3495 39.2355L56.8884 28.5295L48.3806 8.80688H52.5938L58.9237 23.7261L65.2537 8.80688H69.4669L56.3388 39.2355H52.3495Z" fill="#1F0047"/>
<circle cx="90.7018" cy="19.9999" r="19.2982" fill="#1F0047"/>
<path d="M95.3958 26.251V21.5067H86.394C85.8671 21.5067 85.3724 21.4106 84.9098 21.2186C84.4472 21.0137 84.0424 20.7448 83.6954 20.4118C83.3613 20.0661 83.0914 19.6627 82.8858 19.2018C82.6931 18.7408 82.5967 18.2478 82.5967 17.7228V13.3626C82.5967 12.8376 82.6931 12.3446 82.8858 11.8837C83.0914 11.4227 83.3613 11.0257 83.6954 10.6928C84.0424 10.347 84.4472 10.0781 84.9098 9.88606C85.3724 9.68118 85.8671 9.57874 86.394 9.57874H98.4029V13.3626H86.394V17.7228H95.3958C95.9227 17.7228 96.411 17.8252 96.8608 18.0301C97.3234 18.2222 97.7282 18.4911 98.0752 18.8368C98.4221 19.1698 98.692 19.5667 98.8848 20.0277C99.0904 20.4887 99.1932 20.9817 99.1932 21.5067V26.251C99.1932 26.776 99.0904 27.269 98.8848 27.73C98.692 28.1909 98.4221 28.5943 98.0752 28.94C97.7282 29.273 97.3234 29.5419 96.8608 29.7468C96.411 29.9388 95.9227 30.0349 95.3958 30.0349H82.5967V26.251H95.3958Z" fill="white"/>
</svg>
