<svg width="32" height="32" viewBox="0 0 32 32" fill="none" xmlns="http://www.w3.org/2000/svg">
<rect width="32" height="32" rx="16" fill="white"/>
<path opacity="0.4" d="M16 26C21.5228 26 26 21.5228 26 16C26 10.4772 21.5228 6 16 6C10.4772 6 6 10.4772 6 16C6 21.5228 10.4772 26 16 26Z" fill="#40444E"/>
<path d="M12.0882 22V18.048H11.1602V16.864H12.0882V15.712H11.1602V14.528H12.0882V10.576H14.6002L15.8482 14.528H17.3042V10.576H19.0802V14.528H19.9922V15.712H19.0802V16.864H19.9922V18.048H19.0802V22H16.5522L15.2722 18.048H13.8642V22H12.0882ZM13.8642 16.864H14.9202L14.5682 15.712H13.8322L13.8642 16.864ZM17.3522 19.504H17.4322L17.3682 18.048H16.9362L17.3522 19.504ZM13.8002 14.528H14.2482L13.7842 12.992H13.7202L13.8002 14.528ZM16.6002 16.864H17.3362L17.3042 15.712H16.2322L16.6002 16.864Z" fill="#333333"/>
</svg>
