<svg width="24" height="24" viewBox="0 0 24 24" fill="none" xmlns="http://www.w3.org/2000/svg">
<path opacity="0.4" d="M19 10.28V17.43C18.97 20.28 18.19 21 15.22 21H5.78003C2.76003 21 2 20.25 2 17.27V10.28C2 7.58 2.63 6.71 5 6.57C5.24 6.56 5.50003 6.55 5.78003 6.55H15.22C18.24 6.55 19 7.3 19 10.28Z" fill="currentColor"/>
<path d="M22 6.73V13.72C22 16.42 21.37 17.29 19 17.43V10.28C19 7.3 18.24 6.55 15.22 6.55H5.78003C5.50003 6.55 5.24 6.56 5 6.57C5.03 3.72 5.81003 3 8.78003 3H18.22C21.24 3 22 3.75 22 6.73Z" fill="currentColor"/>
<path d="M6.96002 18.56H5.23999C4.82999 18.56 4.48999 18.22 4.48999 17.81C4.48999 17.4 4.82999 17.06 5.23999 17.06H6.96002C7.37002 17.06 7.71002 17.4 7.71002 17.81C7.71002 18.22 7.38002 18.56 6.96002 18.56Z" fill="currentColor"/>
<path d="M12.55 18.56H9.10999C8.69999 18.56 8.35999 18.22 8.35999 17.81C8.35999 17.4 8.69999 17.06 9.10999 17.06H12.55C12.96 17.06 13.3 17.4 13.3 17.81C13.3 18.22 12.97 18.56 12.55 18.56Z" fill="currentColor"/>
<path d="M19 11.86H2V13.36H19V11.86Z" fill="currentColor"/>
</svg>
